<mxfile host="app.diagrams.net" modified="2023-03-19T03:25:29.150Z" agent="5.0 (Windows NT 10.0; Win64; x64) AppleWebKit/537.36 (KHTML, like Gecko) Chrome/111.0.0.0 Safari/537.36" etag="1vxigcp0xzmwwF6I2Twm" version="21.0.8" type="github">
  <diagram id="C5RBs43oDa-KdzZeNtuy" name="Page-1">
    <mxGraphModel dx="1434" dy="764" grid="1" gridSize="10" guides="1" tooltips="1" connect="1" arrows="1" fold="1" page="1" pageScale="1" pageWidth="827" pageHeight="1169" math="0" shadow="0">
      <root>
        <mxCell id="WIyWlLk6GJQsqaUBKTNV-0" />
        <mxCell id="WIyWlLk6GJQsqaUBKTNV-1" parent="WIyWlLk6GJQsqaUBKTNV-0" />
        <mxCell id="xCS7fGeJZlZgJ_UFN7kf-13" style="edgeStyle=orthogonalEdgeStyle;rounded=0;orthogonalLoop=1;jettySize=auto;html=1;exitX=1;exitY=0.5;exitDx=0;exitDy=0;entryX=0.5;entryY=0;entryDx=0;entryDy=0;" edge="1" parent="WIyWlLk6GJQsqaUBKTNV-1" source="P3N80EWxJ7Z_MhAh98Q0-0" target="xCS7fGeJZlZgJ_UFN7kf-8">
          <mxGeometry relative="1" as="geometry" />
        </mxCell>
        <mxCell id="P3N80EWxJ7Z_MhAh98Q0-0" value="While tasks remain in task list" style="rounded=0;whiteSpace=wrap;html=1;" parent="WIyWlLk6GJQsqaUBKTNV-1" vertex="1">
          <mxGeometry x="354" y="50" width="120" height="60" as="geometry" />
        </mxCell>
        <mxCell id="P3N80EWxJ7Z_MhAh98Q0-1" value="" style="endArrow=classic;html=1;rounded=0;exitX=0.5;exitY=1;exitDx=0;exitDy=0;entryX=0.5;entryY=0;entryDx=0;entryDy=0;" parent="WIyWlLk6GJQsqaUBKTNV-1" source="P3N80EWxJ7Z_MhAh98Q0-0" target="P3N80EWxJ7Z_MhAh98Q0-2" edge="1">
          <mxGeometry width="50" height="50" relative="1" as="geometry">
            <mxPoint x="390" y="410" as="sourcePoint" />
            <mxPoint x="414" y="200" as="targetPoint" />
          </mxGeometry>
        </mxCell>
        <mxCell id="P3N80EWxJ7Z_MhAh98Q0-5" style="edgeStyle=orthogonalEdgeStyle;rounded=0;orthogonalLoop=1;jettySize=auto;html=1;exitX=0.5;exitY=1;exitDx=0;exitDy=0;entryX=0.5;entryY=0;entryDx=0;entryDy=0;" parent="WIyWlLk6GJQsqaUBKTNV-1" source="P3N80EWxJ7Z_MhAh98Q0-2" target="P3N80EWxJ7Z_MhAh98Q0-4" edge="1">
          <mxGeometry relative="1" as="geometry" />
        </mxCell>
        <mxCell id="P3N80EWxJ7Z_MhAh98Q0-2" value="Find average time to complete each remaining task: ACT" style="rounded=0;whiteSpace=wrap;html=1;" parent="WIyWlLk6GJQsqaUBKTNV-1" vertex="1">
          <mxGeometry x="354" y="140" width="120" height="60" as="geometry" />
        </mxCell>
        <mxCell id="P3N80EWxJ7Z_MhAh98Q0-8" style="edgeStyle=orthogonalEdgeStyle;rounded=0;orthogonalLoop=1;jettySize=auto;html=1;exitX=0;exitY=0.5;exitDx=0;exitDy=0;" parent="WIyWlLk6GJQsqaUBKTNV-1" source="P3N80EWxJ7Z_MhAh98Q0-4" edge="1">
          <mxGeometry relative="1" as="geometry">
            <mxPoint x="320" y="330" as="targetPoint" />
          </mxGeometry>
        </mxCell>
        <mxCell id="P3N80EWxJ7Z_MhAh98Q0-11" style="edgeStyle=orthogonalEdgeStyle;rounded=0;orthogonalLoop=1;jettySize=auto;html=1;exitX=1;exitY=0.5;exitDx=0;exitDy=0;" parent="WIyWlLk6GJQsqaUBKTNV-1" source="P3N80EWxJ7Z_MhAh98Q0-4" edge="1">
          <mxGeometry relative="1" as="geometry">
            <mxPoint x="520" y="330" as="targetPoint" />
          </mxGeometry>
        </mxCell>
        <mxCell id="P3N80EWxJ7Z_MhAh98Q0-4" value="&lt;font style=&quot;font-size: 12px;&quot;&gt;For each task, T&lt;font style=&quot;font-size: 12px;&quot;&gt;i&lt;/font&gt;&lt;font style=&quot;font-size: 12px;&quot;&gt;,&lt;/font&gt;&lt;font style=&quot;font-size: 12px;&quot;&gt;&amp;nbsp;&lt;br&gt;&lt;/font&gt;check if: CT(Ti) &amp;lt; ACT&lt;/font&gt;" style="rounded=0;whiteSpace=wrap;html=1;" parent="WIyWlLk6GJQsqaUBKTNV-1" vertex="1">
          <mxGeometry x="354" y="220" width="120" height="60" as="geometry" />
        </mxCell>
        <mxCell id="P3N80EWxJ7Z_MhAh98Q0-9" value="Yes" style="text;html=1;align=center;verticalAlign=middle;resizable=0;points=[];autosize=1;strokeColor=none;fillColor=none;" parent="WIyWlLk6GJQsqaUBKTNV-1" vertex="1">
          <mxGeometry x="330" y="290" width="40" height="30" as="geometry" />
        </mxCell>
        <mxCell id="P3N80EWxJ7Z_MhAh98Q0-12" value="No" style="text;html=1;align=center;verticalAlign=middle;resizable=0;points=[];autosize=1;strokeColor=none;fillColor=none;" parent="WIyWlLk6GJQsqaUBKTNV-1" vertex="1">
          <mxGeometry x="470" y="290" width="40" height="30" as="geometry" />
        </mxCell>
        <mxCell id="P3N80EWxJ7Z_MhAh98Q0-17" value="" style="edgeStyle=orthogonalEdgeStyle;rounded=0;orthogonalLoop=1;jettySize=auto;html=1;" parent="WIyWlLk6GJQsqaUBKTNV-1" source="P3N80EWxJ7Z_MhAh98Q0-13" target="P3N80EWxJ7Z_MhAh98Q0-15" edge="1">
          <mxGeometry relative="1" as="geometry">
            <Array as="points">
              <mxPoint x="320" y="460" />
            </Array>
          </mxGeometry>
        </mxCell>
        <mxCell id="P3N80EWxJ7Z_MhAh98Q0-13" value="Increment ShortTaskCounter" style="rounded=0;whiteSpace=wrap;html=1;" parent="WIyWlLk6GJQsqaUBKTNV-1" vertex="1">
          <mxGeometry x="260" y="330" width="120" height="60" as="geometry" />
        </mxCell>
        <mxCell id="P3N80EWxJ7Z_MhAh98Q0-16" style="edgeStyle=orthogonalEdgeStyle;rounded=0;orthogonalLoop=1;jettySize=auto;html=1;exitX=0.5;exitY=1;exitDx=0;exitDy=0;entryX=1;entryY=0.5;entryDx=0;entryDy=0;" parent="WIyWlLk6GJQsqaUBKTNV-1" source="P3N80EWxJ7Z_MhAh98Q0-14" target="P3N80EWxJ7Z_MhAh98Q0-15" edge="1">
          <mxGeometry relative="1" as="geometry" />
        </mxCell>
        <mxCell id="P3N80EWxJ7Z_MhAh98Q0-14" value="Increment LongTaskCounter" style="rounded=0;whiteSpace=wrap;html=1;" parent="WIyWlLk6GJQsqaUBKTNV-1" vertex="1">
          <mxGeometry x="460" y="330" width="120" height="60" as="geometry" />
        </mxCell>
        <mxCell id="P3N80EWxJ7Z_MhAh98Q0-22" style="edgeStyle=orthogonalEdgeStyle;rounded=0;orthogonalLoop=1;jettySize=auto;html=1;exitX=0.25;exitY=1;exitDx=0;exitDy=0;entryX=0.5;entryY=0;entryDx=0;entryDy=0;" parent="WIyWlLk6GJQsqaUBKTNV-1" source="P3N80EWxJ7Z_MhAh98Q0-15" target="P3N80EWxJ7Z_MhAh98Q0-20" edge="1">
          <mxGeometry relative="1" as="geometry" />
        </mxCell>
        <mxCell id="P3N80EWxJ7Z_MhAh98Q0-23" style="edgeStyle=orthogonalEdgeStyle;rounded=0;orthogonalLoop=1;jettySize=auto;html=1;exitX=0.75;exitY=1;exitDx=0;exitDy=0;entryX=0.5;entryY=0;entryDx=0;entryDy=0;" parent="WIyWlLk6GJQsqaUBKTNV-1" source="P3N80EWxJ7Z_MhAh98Q0-15" target="P3N80EWxJ7Z_MhAh98Q0-21" edge="1">
          <mxGeometry relative="1" as="geometry" />
        </mxCell>
        <mxCell id="P3N80EWxJ7Z_MhAh98Q0-15" value="if &lt;br&gt;ShortTaskCounter &lt;br&gt;&amp;lt;&lt;br&gt;&amp;nbsp;LongTaskCounter" style="whiteSpace=wrap;html=1;" parent="WIyWlLk6GJQsqaUBKTNV-1" vertex="1">
          <mxGeometry x="354" y="430" width="120" height="60" as="geometry" />
        </mxCell>
        <mxCell id="P3N80EWxJ7Z_MhAh98Q0-18" value="Yes" style="text;html=1;align=center;verticalAlign=middle;resizable=0;points=[];autosize=1;strokeColor=none;fillColor=none;" parent="WIyWlLk6GJQsqaUBKTNV-1" vertex="1">
          <mxGeometry x="320" y="525" width="40" height="30" as="geometry" />
        </mxCell>
        <mxCell id="P3N80EWxJ7Z_MhAh98Q0-19" value="No" style="text;html=1;align=center;verticalAlign=middle;resizable=0;points=[];autosize=1;strokeColor=none;fillColor=none;" parent="WIyWlLk6GJQsqaUBKTNV-1" vertex="1">
          <mxGeometry x="460" y="530" width="40" height="30" as="geometry" />
        </mxCell>
        <mxCell id="xCS7fGeJZlZgJ_UFN7kf-1" style="edgeStyle=orthogonalEdgeStyle;rounded=0;orthogonalLoop=1;jettySize=auto;html=1;exitX=0.5;exitY=1;exitDx=0;exitDy=0;" edge="1" parent="WIyWlLk6GJQsqaUBKTNV-1" source="P3N80EWxJ7Z_MhAh98Q0-20">
          <mxGeometry relative="1" as="geometry">
            <mxPoint x="350" y="80" as="targetPoint" />
            <Array as="points">
              <mxPoint x="300" y="690" />
              <mxPoint x="200" y="690" />
              <mxPoint x="200" y="80" />
            </Array>
          </mxGeometry>
        </mxCell>
        <mxCell id="P3N80EWxJ7Z_MhAh98Q0-20" value="Perform Min-Min" style="rounded=0;whiteSpace=wrap;html=1;" parent="WIyWlLk6GJQsqaUBKTNV-1" vertex="1">
          <mxGeometry x="240" y="555" width="120" height="60" as="geometry" />
        </mxCell>
        <mxCell id="P3N80EWxJ7Z_MhAh98Q0-21" value="Perform Max-Min" style="rounded=0;whiteSpace=wrap;html=1;" parent="WIyWlLk6GJQsqaUBKTNV-1" vertex="1">
          <mxGeometry x="470" y="560" width="120" height="60" as="geometry" />
        </mxCell>
        <mxCell id="xCS7fGeJZlZgJ_UFN7kf-4" value="" style="endArrow=none;html=1;rounded=0;exitX=0.5;exitY=1;exitDx=0;exitDy=0;" edge="1" parent="WIyWlLk6GJQsqaUBKTNV-1" source="P3N80EWxJ7Z_MhAh98Q0-21">
          <mxGeometry width="50" height="50" relative="1" as="geometry">
            <mxPoint x="390" y="420" as="sourcePoint" />
            <mxPoint x="300" y="690" as="targetPoint" />
            <Array as="points">
              <mxPoint x="530" y="690" />
            </Array>
          </mxGeometry>
        </mxCell>
        <mxCell id="xCS7fGeJZlZgJ_UFN7kf-5" value="Yes" style="text;html=1;align=center;verticalAlign=middle;resizable=0;points=[];autosize=1;strokeColor=none;fillColor=none;" vertex="1" parent="WIyWlLk6GJQsqaUBKTNV-1">
          <mxGeometry x="420" y="110" width="40" height="30" as="geometry" />
        </mxCell>
        <mxCell id="xCS7fGeJZlZgJ_UFN7kf-8" value="Reschedule" style="rounded=0;whiteSpace=wrap;html=1;" vertex="1" parent="WIyWlLk6GJQsqaUBKTNV-1">
          <mxGeometry x="540" y="140" width="120" height="60" as="geometry" />
        </mxCell>
        <mxCell id="xCS7fGeJZlZgJ_UFN7kf-9" value="No" style="text;html=1;align=center;verticalAlign=middle;resizable=0;points=[];autosize=1;strokeColor=none;fillColor=none;" vertex="1" parent="WIyWlLk6GJQsqaUBKTNV-1">
          <mxGeometry x="490" y="80" width="40" height="30" as="geometry" />
        </mxCell>
      </root>
    </mxGraphModel>
  </diagram>
</mxfile>
